# xmcd
#
# Track frame offsets:
#      150
#      23220
#      41747
#      61450
#      80422
#      97997
#      110767
#      130895
#      147037
#      160920
#      179007
# 
# Disc length: 2619 seconds
#
# Revision: 6
# Processed by: cddbd v1.4PL0 Copyright (c) Steve Scherf et al.
#
# Submitted via: FreeRIP 1.20
#
DISCID=960a390b
DTITLE=G-Force Cat - purrr
DYEAR=1900
DGENRE=Country
TTITLE0=jon is dead
TTITLE1=take control
TTITLE2=grass
TTITLE3=compromise
TTITLE4=freeloader
TTITLE5=pinewood
TTITLE6=bring me down
TTITLE7=man
TTITLE8=damage
TTITLE9=don't touch
TTITLE10=belladonna
EXTD=ID3G:   2
EXTT0=
EXTT1=
EXTT2=
EXTT3=
EXTT4=
EXTT5=
EXTT6=
EXTT7=
EXTT8=
EXTT9=
EXTT10=
PLAYORDER=
